<?xml version="1.0" encoding="UTF-8"?>
<svg width="167px" height="27px" viewBox="0 0 167 27" version="1.1" xmlns="http://www.w3.org/2000/svg" xmlns:xlink="http://www.w3.org/1999/xlink">
    <!-- Generator: Sketch 51.3 (57544) - http://www.bohemiancoding.com/sketch -->
    <title>decathlon-logo</title>
    <desc>Created with Sketch.</desc>
    <defs></defs>
    <g id="Page-1" stroke="none" stroke-width="1" fill="none" fill-rule="evenodd">
        <g id="decathlon-logo" transform="translate(-11.000000, -10.000000)" fill="#FFFFFF" fill-rule="nonzero">
            <path d="M33.3,21.2 C32.9,18.4 31.7,16 29.8,14.3 C27.1,11.9 24.3,11.4 20.2,11.4 L11.5,11.4 L11.5,35.6 L21,35.6 C24.6,35.6 27,35.1 29.7,32.6 C31.6,30.8 32.8,28.6 33.2,25.9 L33.2,35.5 L47.1,35.5 L47.1,30.2 L39.5,30.2 L39.5,25.8 L46.1,25.8 L46.1,20.6 L39.5,20.6 L39.5,16.7 L47.1,16.7 L47.1,11.4 L33.3,11.4 L33.3,21.2 Z M20.2,30.3 L17.7,30.3 L17.7,16.6 L20.2,16.6 C24.8,16.6 27.3,19.1 27.3,23.4 C27.2,28.2 25,30.3 20.2,30.3 Z M66.9,26.3 C66,27.7 64,30 60.9,29.9 C56,29.8 54.1,26.4 54.1,23.4 C54.1,19.9 56.9,17 60.5,16.9 C64.6,16.8 67.6,20.7 67.6,20.7 L70.8,15.6 C70.8,15.6 67.2,10.7 60.5,10.9 C50.5,11.1 47.6,19.5 47.6,23.3 C47.6,31.4 53.9,35.5 59,36 C66.4,36.7 70.5,31.9 70.5,31.9 C70.5,31.9 70.4,31.9 70.7,31.9 C72.2,31.9 76.1,31.9 76.1,31.9 L76.1,35.5 L82.1,35.5 L82.1,11.4 L75.6,11.4 C75.7,11.4 67.7,25 66.9,26.3 Z M76.3,26.9 L73.1,26.9 L76.3,21.4 L76.3,26.9 Z M83.5,11.4 L99.4,11.4 L99.4,17.2 L94.6,17.2 L94.6,35.6 L88.4,35.6 L88.4,17.2 L83.5,17.2 L83.5,11.4 Z M113.5,11.4 L119.7,11.4 L119.7,35.6 L113.5,35.6 L113.5,26.4 L107,26.4 L107,35.6 L100.8,35.6 L100.8,11.4 L107,11.4 L107,20.6 L113.4,20.6 L113.4,11.4 L113.5,11.4 Z M171.3,11.4 L171.3,24.8 L161.9,11.4 L156.3,11.4 L156.3,19.6 C155.7,17.7 154.6,15.9 153.1,14.5 C150.7,12.2 147.6,10.9 144.3,10.9 C140.8,10.9 137.8,12.1 135.3,14.5 C132.9,16.9 131.6,19.9 131.6,23.3 C131.6,25.9 132.2,28.3 133.5,30.3 L127.9,30.3 L127.9,11.4 L121.7,11.4 L121.7,35.6 L135.2,35.6 L135.2,32.4 C137.6,34.9 140.7,36.1 144.3,36.1 C147.7,36.1 151,34.8 153.4,32.3 C154.8,30.9 155.8,29.2 156.4,27.3 L156.4,35.6 L162.7,35.6 L162.7,22.1 L172.2,35.6 L177.7,35.6 L177.7,11.4 L171.3,11.4 Z M144.2,30.1 C140.8,30.1 137.7,27.2 137.7,23.3 C137.7,19.7 140.6,16.9 144.2,16.9 C147.7,16.9 150.5,19.7 150.5,23.3 C150.6,27.3 147.7,30.1 144.2,30.1 Z" id="Shape"></path>
        </g>
    </g>
</svg>